<?xml version="1.0" encoding="UTF-8"?>
<svg width="32px" height="33px" viewBox="0 0 32 33" version="1.1" xmlns="http://www.w3.org/2000/svg" xmlns:xlink="http://www.w3.org/1999/xlink">
    <title>icons / video actions / hm_language / filled</title>
    <g id="VOD-Manager" stroke="none" stroke-width="1" fill="none" fill-rule="evenodd">
        <g id="VOD-Manager---Add-Folder---Passcode-Required" transform="translate(-960.000000, -228.000000)">
            <g id="Group-15" transform="translate(944.000000, 220.000000)">
                <g id="Group-13" transform="translate(12.000000, 8.500000)">
                    <g id="icons-/-video-actions-/-hm_language-/-filled" transform="translate(4.000000, 0.000000)">
                        <rect id="Rectangle-Copy-3" fill="#606162" opacity="0" x="0" y="0" width="32" height="32"></rect>
                        <path d="M27,20.1875 C27.172589,20.1875 27.3125,20.327411 27.3125,20.5 L27.3125,22.6875 L29.5,22.6875 C29.672589,22.6875 29.8125,22.827411 29.8125,23 C29.8125,23.172589 29.672589,23.3125 29.5,23.3125 L27.3125,23.3115 L27.3125,25.5 C27.3125,25.672589 27.172589,25.8125 27,25.8125 C26.827411,25.8125 26.6875,25.672589 26.6875,25.5 L26.6875,23.3115 L24.5,23.3125 C24.327411,23.3125 24.1875,23.172589 24.1875,23 C24.1875,22.827411 24.327411,22.6875 24.5,22.6875 L26.6875,22.6865 L26.6875,20.5 C26.6875,20.327411 26.827411,20.1875 27,20.1875 Z M25,9 C25.3858939,9 25.7462617,9.10929032 26.0518394,9.29860697 L19.753,13.497 L18.788,12.939 L23.196,10 L7,10 C6.48716416,10 6.06449284,10.3860402 6.00672773,10.8833789 L6,11 L6,21.464 L12.941,16.836 L12.4692342,16.264852 L9.38188248,17.0921054 L9.15051758,18.4674213 L7.89571674,18.8036441 L9.11419713,12.2654962 L10.368998,11.9292733 L13.954,16.161 L18.084,13.408 L19.6367261,14.3047645 C18.8822762,14.7838426 18.0459686,15.1716976 17.1761023,15.3703248 L16.8464171,15.4360906 C16.6468302,15.4700885 16.4458215,15.4936603 16.2439594,15.5056532 L16.2695106,15.5892892 L16.2695106,15.5892892 L16.3168562,15.7876037 L16.3168562,15.7876037 C16.3366219,15.8824981 16.3540142,15.9813462 16.3681653,16.0737442 L16.3998121,16.3201528 L16.3998121,16.3201528 C17.000835,16.2747062 17.5905282,16.1422165 18.1558198,15.9453248 L16.1601771,19.4018794 L16.8683935,19.8107683 L17.7180667,18.3390911 L20.7279861,20.0768689 L20.3532584,20.7259163 C20.2987922,20.8202545 20.2478558,20.8467506 20.1566573,20.8092378 L19.8962385,20.6691068 L19.8962385,20.6691068 L19.5756091,20.4810933 L19.5756091,20.4810933 L19.1911512,20.2442738 C19.1469722,20.2163319 19.1026535,20.1880275 19.0585425,20.1595412 C19.0419861,20.4015511 18.9754662,20.7656558 18.8896277,20.9676657 L19.4634114,21.2933494 C19.8052543,21.4795317 20.0712467,21.59956 20.2944398,21.6277931 C20.6325701,21.6821342 20.8315545,21.5152609 21.0494194,21.1379078 L23.2193541,17.3794707 L19.5935944,15.2861374 C19.871592,15.1246314 20.1583042,14.9480313 20.4296204,14.7625423 L24.5403543,17.1358756 L24.9194393,16.4792812 L21.0935315,14.2703923 C21.3417537,14.0715699 21.5789372,13.8563117 21.8117634,13.6486004 L21.1763136,13.0603428 C20.9129863,13.3208835 20.6222078,13.5756379 20.3083352,13.817059 L19.754,13.497 L26.0525212,9.2990295 C26.6212396,9.6516871 27,10.2816114 27,11 L27,18 C24.2385763,18 22,20.2385763 22,23 C22,23.3425323 22.0344436,23.6770198 22.1000563,24.000188 L7,24 C6.30582391,24 5.69424938,23.6463407 5.33562495,23.1093706 C5.12365413,22.792059 5,22.41047 5,22 L5,11 C5,9.8954305 5.8954305,9 7,9 L25,9 Z M18.4370209,17.0938258 L21.4469403,18.8316036 L21.0678554,19.488198 L18.057936,17.7504203 L18.4370209,17.0938258 Z M19.1559752,15.8485606 L22.1658946,17.5863383 L21.7868096,18.2429328 L18.7768902,16.505155 L19.1559752,15.8485606 Z M10.02724,13.2897999 L9.56007337,16.0238728 L11.7808,15.4288309 L10.02724,13.2897999 Z" id="Shape" fill="#1B6BC8"></path>
                    </g>
                </g>
            </g>
        </g>
    </g>
</svg>